
<svg width="18px" height="22px" viewBox="0 0 18 22" version="1.1" xmlns="http://www.w3.org/2000/svg" xmlns:xlink="http://www.w3.org/1999/xlink">
    <g id="Page-1" stroke="none" stroke-width="1" fill="none" fill-rule="evenodd">
        <g id="book-cover-placeholder" fill-rule="nonzero">
            <path d="M0,7 L0,9 L0,10 L0,13 L0,14 L0,19 L0,20 C0,21.105 0.8954,22 2,22 L16,22 C17.105,22 18,21.105 18,20 L18,19 L18,14 L18,10 L18,7 L0,7 Z" id="Path" fill="#E6667A"></path>
            <path d="M0,6 L0,8 L0,9 L0,12 L0,13 L0,18 L0,19 C0,20.1 0.8954,21 2,21 L16,21 C17.105,21 18,20.1 18,19 L18,18 L18,13 L18,9 L18,6 L0,6 Z" id="Path" fill="#ECF0F1"></path>
            <path d="M0,5 L0,7 L0,8 L0,11 L0,12 L0,17 L0,18 C0,19.1 0.8954,20 2,20 L16,20 C17.105,20 18,19.1 18,18 L18,17 L18,12 L18,8 L18,5 L0,5 Z" id="Path" fill-opacity="0.5" fill="#023E35"></path>
            <path d="M0,4 L0,6 L0,7 L0,10 L0,11 L0,16 L0,17 C0,18.1 0.8954,19 2,19 L16,19 C17.105,19 18,18.1 18,17 L18,16 L18,11 L18,7 L18,4 L0,4 Z" id="Path" fill="#ECF0F1"></path>
            <path d="M2,0 C0.8954,0 0,0.8954 0,2 L0,3 L0,7 L0,9 L0,10 L0,13 L0,14 L0,19 L0,20 C0,21.105 0.8954,22 2,22 L4,22 L4,21 L2.5,21 C1.6716,21 1,20.328 1,19.5 C1,18.672 1.6716,18 2.5,18 L15,18 L16,18 C17.105,18 18,17.105 18,16 L18,15 L18,10 L18,6 L18,3 L18,2 C18,0.8954 17.105,0 16,0 L12,0 L2,0 Z" id="Path" fill="#E6667A"></path>
            <path d="M5,0 L5,18 L6,18 L15,18 L16,18 C17.105,18 18,17.105 18,16 L18,15 L18,10 L18,6 L18,3 L18,2 C18,0.8954 17.105,0 16,0 L12,0 L6,0 L5,0 Z" id="Path" fill="#ED909F"></path>
        </g>
    </g>
</svg>